/* XPM */
static char *player_xpm[] = {
"64 64 2 1",
". c #0000FF",
"  c None",
". . . . . . . . . . . . . . . . . . . . . . . . . . . . . . . . ",
" . . . . . . . . . . . . . . . . . . . . . . . . . . . . . . . .",
". . . . . . . . . . . . . . . . . . . . . . . . . . . . . . . . ",
" . . . . . . . . . . . . . . . . . . . . . . . . . . . . . . . .",
". . . . . . . . . . . . . . . . . . . . . . . . . . . . . . . . ",
" . . . . . . . . . . . . . . . . . . . . . . . . . . . . . . . .",
". . . . . . . . . . . . . . . . . . . . . . . . . . . . . . . . ",
" . . . . . . . . . . . . . . . . . . . . . . . . . . . . . . . .",
". . . . . . . . . . . . . . . . . . . . . . . . . . . . . . . . ",
" . . . . . . . . . . . . . . . . . . . . . . . . . . . . . . . .",
". . . . . . . . . . . . . . . . . . . . . . . . . . . . . . . . ",
" . . . . . . . . . . . . . . . . . . . . . . . . . . . . . . . .",
". . . . . . . . . . . . . . . . . . . . . . . . . . . . . . . . ",
" . . . . . . . . . . . . . . . . . . . . . . . . . . . . . . . .",
". . . . . . . . . . . . . . . . . . . . . . . . . . . . . . . . ",
" . . . . . . . . . . . . . . . . . . . . . . . . . . . . . . . .",
". . . . . . . . . . . . . . . . . . . . . . . . . . . . . . . . ",
" . . . . . . . . . . . . . . . . . . . . . . . . . . . . . . . .",
". . . . . . . . . . . . . . . . . . . . . . . . . . . . . . . . ",
" . . . . . . . . . . . . . . . . . . . . . . . . . . . . . . . .",
". . . . . . . . . . . . . . . . . . . . . . . . . . . . . . . . ",
" . . . . . . . . . . . . . . . . . . . . . . . . . . . . . . . .",
". . . . . . . . . . . . . . . . . . . . . . . . . . . . . . . . ",
" . . . . . . . . . . . . . . . . . . . . . . . . . . . . . . . .",
". . . . . . . . . . . . . . . . . . . . . . . . . . . . . . . . ",
" . . . . . . . . . . . . . . . . . . . . . . . . . . . . . . . .",
". . . . . . . . . . . . . . . . . . . . . . . . . . . . . . . . ",
" . . . . . . . . . . . . . . . . . . . . . . . . . . . . . . . .",
". . . . . . . . . . . . . . . . . . . . . . . . . . . . . . . . ",
" . . . . . . . . . . . . . . . . . . . . . . . . . . . . . . . .",
". . . . . . . . . . . . . . . . . . . . . . . . . . . . . . . . ",
" . . . . . . . . . . . . . . . . . . . . . . . . . . . . . . . .",
". . . . . . . . . . . . . . . . . . . . . . . . . . . . . . . . ",
" . . . . . . . . . . . . . . . . . . . . . . . . . . . . . . . .",
". . . . . . . . . . . . . . . . . . . . . . . . . . . . . . . . ",
" . . . . . . . . . . . . . . . . . . . . . . . . . . . . . . . .",
". . . . . . . . . . . . . . . . . . . . . . . . . . . . . . . . ",
" . . . . . . . . . . . . . . . . . . . . . . . . . . . . . . . .",
". . . . . . . . . . . . . . . . . . . . . . . . . . . . . . . . ",
" . . . . . . . . . . . . . . . . . . . . . . . . . . . . . . . .",
". . . . . . . . . . . . . . . . . . . . . . . . . . . . . . . . ",
" . . . . . . . . . . . . . . . . . . . . . . . . . . . . . . . .",
". . . . . . . . . . . . . . . . . . . . . . . . . . . . . . . . ",
" . . . . . . . . . . . . . . . . . . . . . . . . . . . . . . . .",
". . . . . . . . . . . . . . . . . . . . . . . . . . . . . . . . ",
" . . . . . . . . . . . . . . . . . . . . . . . . . . . . . . . .",
". . . . . . . . . . . . . . . . . . . . . . . . . . . . . . . . ",
" . . . . . . . . . . . . . . . . . . . . . . . . . . . . . . . .",
". . . . . . . . . . . . . . . . . . . . . . . . . . . . . . . . ",
" . . . . . . . . . . . . . . . . . . . . . . . . . . . . . . . .",
". . . . . . . . . . . . . . . . . . . . . . . . . . . . . . . . ",
" . . . . . . . . . . . . . . . . . . . . . . . . . . . . . . . .",
". . . . . . . . . . . . . . . . . . . . . . . . . . . . . . . . ",
" . . . . . . . . . . . . . . . . . . . . . . . . . . . . . . . .",
". . . . . . . . . . . . . . . . . . . . . . . . . . . . . . . . ",
" . . . . . . . . . . . . . . . . . . . . . . . . . . . . . . . .",
". . . . . . . . . . . . . . . . . . . . . . . . . . . . . . . . ",
" . . . . . . . . . . . . . . . . . . . . . . . . . . . . . . . .",
". . . . . . . . . . . . . . . . . . . . . . . . . . . . . . . . ",
" . . . . . . . . . . . . . . . . . . . . . . . . . . . . . . . .",
". . . . . . . . . . . . . . . . . . . . . . . . . . . . . . . . ",
" . . . . . . . . . . . . . . . . . . . . . . . . . . . . . . . .",
". . . . . . . . . . . . . . . . . . . . . . . . . . . . . . . . ",
" . . . . . . . . . . . . . . . . . . . . . . . . . . . . . . . ."
};
